<?xml version="1.0" encoding="UTF-8" standalone="no"?>
<!-- Created with Inkscape (http://www.inkscape.org/) -->

<svg
   width="50"
   height="50"
   viewBox="0 0 13.229167 13.229167"
   version="1.1"
   id="svg5"
   xml:space="preserve"
   inkscape:version="1.2 (dc2aeda, 2022-05-15)"
   sodipodi:docname="icon.svg"
   xmlns:inkscape="http://www.inkscape.org/namespaces/inkscape"
   xmlns:sodipodi="http://sodipodi.sourceforge.net/DTD/sodipodi-0.dtd"
   xmlns="http://www.w3.org/2000/svg"
   xmlns:svg="http://www.w3.org/2000/svg"><sodipodi:namedview
     id="namedview7"
     pagecolor="#ffffff"
     bordercolor="#666666"
     borderopacity="1.0"
     inkscape:showpageshadow="2"
     inkscape:pageopacity="0.0"
     inkscape:pagecheckerboard="0"
     inkscape:deskcolor="#d1d1d1"
     inkscape:document-units="px"
     showgrid="false"
     inkscape:zoom="8.2386083"
     inkscape:cx="16.811092"
     inkscape:cy="27.553197"
     inkscape:window-width="1366"
     inkscape:window-height="707"
     inkscape:window-x="1280"
     inkscape:window-y="32"
     inkscape:window-maximized="1"
     inkscape:current-layer="layer1" /><defs
     id="defs2" /><g
     inkscape:label="Layer 1"
     inkscape:groupmode="layer"
     id="layer1"><rect
       id="rect293"
       width="13.229167"
       height="13.229167"
       x="0"
       y="-5.5511151e-17"
       style="stroke-width:0.264583;fill:#323238;fill-opacity:1" /><ellipse
       id="path230"
       cx="6.614583"
       cy="6.6145835"
       style="display:none;fill:#505050;fill-opacity:1;stroke-width:0.264583"
       rx="5.2916665"
       ry="5.291667" /><path
       d="m 3.7468412,3.9516801 c -0.170272,0 -0.3072578,0.1369858 -0.3072578,0.3072578 v 0.6145162 c 0,0.1702727 0.1369858,0.3072585 0.3072578,0.3072585 h 0.6145162 c 0.170272,0 0.3072585,-0.1369858 0.3072585,-0.3072585 V 4.2589379 c 0,-0.170272 -0.1369865,-0.3072577 -0.3072585,-0.3072577 z m 1.9459677,0.2048387 c -0.2266025,0 -0.4096775,0.1830744 -0.4096775,0.4096775 0,0.2266026 0.183075,0.4096775 0.4096775,0.4096775 h 3.6870973 c 0.2266027,0 0.4096774,-0.1830749 0.4096774,-0.4096775 0,-0.2266031 -0.1830747,-0.4096775 -0.4096774,-0.4096775 z m 0,2.0483868 c -0.2266025,0 -0.4096775,0.183075 -0.4096775,0.4096775 0,0.2266032 0.183075,0.4096775 0.4096775,0.4096775 h 3.6870973 c 0.2266027,0 0.4096774,-0.1830743 0.4096774,-0.4096775 0,-0.2266025 -0.1830747,-0.4096775 -0.4096774,-0.4096775 z m 0,2.0483876 c -0.2266025,0 -0.4096775,0.1830742 -0.4096775,0.4096774 0,0.2266025 0.183075,0.4096775 0.4096775,0.4096775 h 3.6870973 c 0.2266027,0 0.4096774,-0.183075 0.4096774,-0.4096775 0,-0.2266032 -0.1830747,-0.4096774 -0.4096774,-0.4096774 z M 3.4395834,6.3073253 v 0.6145162 c 0,0.1702721 0.1369858,0.3072578 0.3072578,0.3072578 h 0.6145162 c 0.170272,0 0.3072585,-0.1369857 0.3072585,-0.3072578 V 6.3073253 c 0,-0.170272 -0.1369865,-0.3072577 -0.3072585,-0.3072577 H 3.7468412 c -0.170272,0 -0.3072578,0.1369857 -0.3072578,0.3072577 z m 0.3072578,1.7411291 c -0.170272,0 -0.3072578,0.1369858 -0.3072578,0.3072584 v 0.6145156 c 0,0.1702727 0.1369858,0.3072585 0.3072578,0.3072585 h 0.6145162 c 0.170272,0 0.3072585,-0.1369858 0.3072585,-0.3072585 V 8.3557128 c 0,-0.1702726 -0.1369865,-0.3072584 -0.3072585,-0.3072584 z"
       id="path232"
       style="fill:#ffffff;stroke-width:0.0128024" /></g></svg>
